<svg xmlns="http://www.w3.org/2000/svg" viewBox="0 0 64 64" width="64" height="64">
  <defs>
    <linearGradient id="badge" x1="0" y1="0" x2="1" y2="1">
      <stop offset="0" stop-color="#28507e"/>
      <stop offset=".55" stop-color="#1f3a5f"/>
      <stop offset="1" stop-color="#15293f"/>
    </linearGradient>
    <linearGradient id="gold" x1="0" y1="0" x2="0" y2="1">
      <stop offset="0" stop-color="#f2d9a6"/>
      <stop offset="1" stop-color="#d9b26a"/>
    </linearGradient>
  </defs>
  <rect x="2" y="2" width="60" height="60" rx="14" fill="url(#badge)" stroke="#0f1e30" stroke-width="1.5"/>
  <rect x="6.5" y="6.5" width="51" height="51" rx="10.5" fill="none" stroke="#ffffff" stroke-opacity=".08"/>
  <rect x="30.7" y="14.5" width="2.6" height="29" rx="1.3" fill="url(#gold)"/>
  <rect x="17" y="17.4" width="30" height="2.6" rx="1.3" fill="url(#gold)"/>
  <circle cx="32" cy="15.6" r="2.9" fill="#f4dcab"/>
  <g stroke="url(#gold)" stroke-width="1.5" fill="none" stroke-linecap="round">
    <path d="M18.3 20.4 L12.6 30.8 M18.3 20.4 L24 30.8"/>
    <path d="M45.7 20.4 L40 30.8 M45.7 20.4 L51.4 30.8"/>
  </g>
  <path d="M11 30.8 a7.3 7.3 0 0 0 14.6 0 z" fill="url(#gold)" opacity=".96"/>
  <path d="M38.4 30.8 a7.3 7.3 0 0 0 14.6 0 z" fill="url(#gold)" opacity=".96"/>
  <path d="M27.6 45.2 h8.8 l-1.7 2.6 h-5.4 z" fill="url(#gold)"/>
  <rect x="23.5" y="48.2" width="17" height="2.7" rx="1.35" fill="url(#gold)"/>
  <path d="M48.6 8.6 l1.5 3.3 3.3 1.5 -3.3 1.5 -1.5 3.3 -1.5 -3.3 -3.3 -1.5 3.3 -1.5 z" fill="#d76b6b"/>
</svg>
